<?xml version="1.0" encoding="UTF-8"?>
<svg width="2765px" height="402px" viewBox="0 0 2765 402" version="1.1" xmlns="http://www.w3.org/2000/svg" xmlns:xlink="http://www.w3.org/1999/xlink" style="background: #FFFFFF;">
    <!-- Generator: Sketch 39.1 (31720) - http://www.bohemiancoding.com/sketch -->
    <title>Artboard</title>
    <desc>Created with Sketch.</desc>
    <defs></defs>
    <g id="Page-1" stroke="none" stroke-width="1" fill="none" fill-rule="evenodd">
        <g id="Artboard">
            <path d="M576.736,396 L512.072,396 L512.072,5.824 L576.736,5.824 L576.736,162.552 C587.696055,153.418621 600.208596,145.83803 614.274,139.81 C628.339404,133.78197 643.591918,130.768 660.032,130.768 C675.376077,130.768 688.619278,133.05131 699.762,137.618 C710.904722,142.184689 720.129297,148.486626 727.436,156.524 C734.742703,164.561374 740.131316,174.059945 743.602,185.02 C747.072684,195.980055 748.808,208.035934 748.808,221.188 L748.808,396 L684.144,396 L684.144,233.792 C684.144,215.159907 680.399371,201.734041 672.91,193.514 C665.420629,185.293959 654.369406,181.184 639.756,181.184 C629.16128,181.184 618.384055,183.741308 607.424,188.856 C596.463945,193.970692 586.234714,201.094621 576.736,210.228 L576.736,396 Z M1066.648,263.932 C1066.648,285.486774 1063.2687,304.849247 1056.51,322.02 C1049.7513,339.190753 1040.34406,353.621275 1028.288,365.312 C1016.23194,377.002725 1002.16675,385.953302 986.092,392.164 C970.017253,398.374698 952.664093,401.48 934.032,401.48 C915.399907,401.48 898.138079,398.557363 882.246,392.712 C866.353921,386.866637 852.562725,378.372722 840.872,367.23 C829.181275,356.087278 820.048033,342.296082 813.472,325.856 C806.895967,309.415918 803.608,290.601439 803.608,269.412 C803.608,247.49189 806.9873,227.85542 813.746,210.502 C820.5047,193.14858 829.91194,178.626725 841.968,166.936 C854.02406,155.245275 868.089253,146.294698 884.164,140.084 C900.238747,133.873302 917.591907,130.768 936.224,130.768 C954.856093,130.768 972.117921,133.599305 988.01,139.262 C1003.90208,144.924695 1017.69327,153.41861 1029.384,164.744 C1041.07473,176.06939 1050.20797,189.951918 1056.784,206.392 C1063.36003,222.832082 1066.648,242.01189 1066.648,263.932 L1066.648,263.932 Z M999.792,266.672 C999.792,250.962588 997.965352,237.536722 994.312,226.394 C990.658648,215.251278 985.81803,206.209368 979.79,199.268 C973.76197,192.326632 966.820706,187.212016 958.966,183.924 C951.111294,180.635984 942.982709,178.992 934.58,178.992 C926.177291,178.992 918.140038,180.361986 910.468,183.102 C902.795962,185.842014 896.037363,190.5913 890.192,197.35 C884.346637,204.1087 879.597352,213.15061 875.944,224.476 C872.290648,235.80139 870.464,249.866583 870.464,266.672 C870.464,282.016077 872.290648,295.076613 875.944,305.854 C879.597352,316.631387 884.43797,325.581964 890.466,332.706 C896.49403,339.830036 903.435294,345.035984 911.29,348.324 C919.144706,351.612016 927.273291,353.256 935.676,353.256 C943.713374,353.256 951.659294,351.794681 959.514,348.872 C967.368706,345.949319 974.218637,341.200033 980.064,334.624 C985.909363,328.047967 990.658648,319.188722 994.312,308.046 C997.965352,296.903278 999.792,283.112082 999.792,266.672 L999.792,266.672 Z M1122.544,396 L1122.544,5.824 L1186.112,5.824 L1186.112,396 L1122.544,396 Z M1263.38,396 L1263.38,135.7 L1328.044,135.7 L1328.044,396 L1263.38,396 Z M1295.712,75.968 C1284.38661,75.968 1275.52737,72.6800329 1269.134,66.104 C1262.74063,59.5279671 1259.544,51.3080493 1259.544,41.444 C1259.544,31.9452858 1262.83197,23.8167005 1269.408,17.058 C1275.98403,10.2992995 1284.75195,6.92 1295.712,6.92 C1306.30672,6.92 1314.89197,10.2079671 1321.468,16.784 C1328.04403,23.3600329 1331.332,31.5799507 1331.332,41.444 C1331.332,51.3080493 1328.04403,59.5279671 1321.468,66.104 C1314.89197,72.6800329 1306.30672,75.968 1295.712,75.968 L1295.712,75.968 Z M1556.56,193.788 C1535.00523,183.558616 1513.99877,178.444 1493.54,178.444 C1480.0226,178.444 1469.70204,180.818643 1462.578,185.568 C1455.45396,190.317357 1451.892,196.893291 1451.892,205.296 C1451.892,212.237368 1454.81464,218.173975 1460.66,223.106 C1466.50536,228.038025 1478.19591,233.061308 1495.732,238.176 L1512.172,243.108 C1535.55345,250.049368 1553.18061,259.54794 1565.054,271.604 C1576.92739,283.66006 1582.864,299.551901 1582.864,319.28 C1582.864,344.488126 1573.36543,364.489926 1554.368,379.286 C1535.37057,394.082074 1509.43216,401.48 1476.552,401.48 C1441.11449,401.48 1411.70545,395.634725 1388.324,383.944 L1402.572,335.72 C1413.16672,340.834692 1424.40061,345.035984 1436.274,348.324 C1448.14739,351.612016 1460.47727,353.256 1473.264,353.256 C1503.58682,353.256 1518.748,343.574763 1518.748,324.212 C1518.748,315.443956 1515.18604,308.868022 1508.062,304.484 C1500.93796,300.099978 1488.79075,295.350692 1471.62,290.236 L1454.632,284.756 C1431.98122,277.449297 1415.26739,267.859393 1404.49,255.986 C1393.71261,244.112607 1388.324,228.494763 1388.324,209.132 C1388.324,197.80661 1390.69864,187.303382 1395.448,177.622 C1400.19736,167.940618 1406.86462,159.629368 1415.45,152.688 C1424.03538,145.746632 1434.44727,140.358019 1446.686,136.522 C1458.92473,132.685981 1472.53326,130.768 1487.512,130.768 C1502.49074,130.768 1517.0126,132.137986 1531.078,134.878 C1545.1434,137.618014 1558.20394,141.727973 1570.26,147.208 L1556.56,193.788 Z M1785.076,182.828 L1713.288,182.828 L1713.288,313.252 C1713.288,325.673395 1716.30197,334.16731 1722.33,338.734 C1728.35803,343.300689 1736.12129,345.584 1745.62,345.584 C1752.9267,345.584 1760.59863,344.853341 1768.636,343.392 C1776.67337,341.930659 1783.43197,339.921346 1788.912,337.364 L1798.776,383.396 C1791.83463,386.318681 1782.42739,389.149986 1770.554,391.89 C1758.68061,394.630014 1745.9854,396 1732.468,396 C1702.87585,396 1681.5954,389.97206 1668.626,377.916 C1655.6566,365.85994 1649.172,347.776121 1649.172,323.664 L1649.172,182.828 L1609.716,182.828 L1609.716,135.7 L1649.172,135.7 L1649.172,54.596 L1713.288,54.596 L1713.288,135.7 L1785.076,135.7 L1785.076,182.828 Z M1848.096,396 L1848.096,135.7 L1912.76,135.7 L1912.76,396 L1848.096,396 Z M1880.428,75.968 C1869.10261,75.968 1860.24337,72.6800329 1853.85,66.104 C1847.45663,59.5279671 1844.26,51.3080493 1844.26,41.444 C1844.26,31.9452858 1847.54797,23.8167005 1854.124,17.058 C1860.70003,10.2992995 1869.46795,6.92 1880.428,6.92 C1891.02272,6.92 1899.60797,10.2079671 1906.184,16.784 C1912.76003,23.3600329 1916.048,31.5799507 1916.048,41.444 C1916.048,51.3080493 1912.76003,59.5279671 1906.184,66.104 C1899.60797,72.6800329 1891.02272,75.968 1880.428,75.968 L1880.428,75.968 Z M2119.904,353.256 C2131.59473,353.256 2141.91529,351.886014 2150.866,349.146 C2159.81671,346.405986 2167.3973,343.392016 2173.608,340.104 L2186.212,385.588 C2178.17463,389.606687 2167.58007,393.259984 2154.428,396.548 C2141.27593,399.836016 2126.84541,401.48 2111.136,401.48 C2091.77324,401.48 2073.68942,398.648695 2056.884,392.986 C2040.07858,387.323305 2025.4654,378.82939 2013.044,367.504 C2000.6226,356.17861 1990.85004,342.113417 1983.726,325.308 C1976.60196,308.502583 1973.04,288.957445 1973.04,266.672 C1973.04,246.213231 1976.4193,227.581417 1983.178,210.776 C1989.9367,193.970583 1999.43527,179.631393 2011.674,167.758 C2023.91273,155.884607 2038.52592,146.751365 2055.514,140.358 C2072.50208,133.964635 2091.22523,130.768 2111.684,130.768 C2123.00939,130.768 2134.69994,131.863989 2146.756,134.056 C2158.81206,136.248011 2171.78126,140.631967 2185.664,147.208 L2171.964,193.24 C2163.56129,188.490643 2154.97604,184.837346 2146.208,182.28 C2137.43996,179.722654 2128.30671,178.444 2118.808,178.444 C2094.69588,178.444 2075.33341,185.841926 2060.72,200.638 C2046.10659,215.434074 2038.8,236.897193 2038.8,265.028 C2038.8,281.468082 2041.17464,295.35061 2045.924,306.676 C2050.67336,318.00139 2056.88396,327.134632 2064.556,334.076 C2072.22804,341.017368 2080.90462,345.949319 2090.586,348.872 C2100.26738,351.794681 2110.03995,353.256 2119.904,353.256 L2119.904,353.256 Z M2480.98,263.932 C2480.98,285.486774 2477.6007,304.849247 2470.842,322.02 C2464.0833,339.190753 2454.67606,353.621275 2442.62,365.312 C2430.56394,377.002725 2416.49875,385.953302 2400.424,392.164 C2384.34925,398.374698 2366.99609,401.48 2348.364,401.48 C2329.73191,401.48 2312.47008,398.557363 2296.578,392.712 C2280.68592,386.866637 2266.89473,378.372722 2255.204,367.23 C2243.51327,356.087278 2234.38003,342.296082 2227.804,325.856 C2221.22797,309.415918 2217.94,290.601439 2217.94,269.412 C2217.94,247.49189 2221.3193,227.85542 2228.078,210.502 C2234.8367,193.14858 2244.24394,178.626725 2256.3,166.936 C2268.35606,155.245275 2282.42125,146.294698 2298.496,140.084 C2314.57075,133.873302 2331.92391,130.768 2350.556,130.768 C2369.18809,130.768 2386.44992,133.599305 2402.342,139.262 C2418.23408,144.924695 2432.02527,153.41861 2443.716,164.744 C2455.40673,176.06939 2464.53997,189.951918 2471.116,206.392 C2477.69203,222.832082 2480.98,242.01189 2480.98,263.932 L2480.98,263.932 Z M2414.124,266.672 C2414.124,250.962588 2412.29735,237.536722 2408.644,226.394 C2404.99065,215.251278 2400.15003,206.209368 2394.122,199.268 C2388.09397,192.326632 2381.15271,187.212016 2373.298,183.924 C2365.44329,180.635984 2357.31471,178.992 2348.912,178.992 C2340.50929,178.992 2332.47204,180.361986 2324.8,183.102 C2317.12796,185.842014 2310.36936,190.5913 2304.524,197.35 C2298.67864,204.1087 2293.92935,213.15061 2290.276,224.476 C2286.62265,235.80139 2284.796,249.866583 2284.796,266.672 C2284.796,282.016077 2286.62265,295.076613 2290.276,305.854 C2293.92935,316.631387 2298.76997,325.581964 2304.798,332.706 C2310.82603,339.830036 2317.76729,345.035984 2325.622,348.324 C2333.47671,351.612016 2341.60529,353.256 2350.008,353.256 C2358.04537,353.256 2365.99129,351.794681 2373.846,348.872 C2381.70071,345.949319 2388.55064,341.200033 2394.396,334.624 C2400.24136,328.047967 2404.99065,319.188722 2408.644,308.046 C2412.29735,296.903278 2414.124,283.112082 2414.124,266.672 L2414.124,266.672 Z M2589.096,396 L2524.432,396 L2524.432,135.7 L2574.848,135.7 L2583.068,170.224 C2595.4894,157.802605 2608.82393,148.121368 2623.072,141.18 C2637.32007,134.238632 2653.21191,130.768 2670.748,130.768 C2698.87881,130.768 2720.61592,138.531256 2735.96,154.058 C2751.30408,169.584744 2758.976,191.595858 2758.976,220.092 L2758.976,396 L2694.312,396 L2694.312,227.764 C2694.312,213.881264 2690.75004,202.647376 2683.626,194.062 C2676.50196,185.476624 2665.81607,181.184 2651.568,181.184 C2640.97328,181.184 2630.19605,184.015305 2619.236,189.678 C2608.27595,195.340695 2598.22938,202.921286 2589.096,212.42 L2589.096,396 Z" id="holisticon" fill="#000000"></path>
            <g id="Icon" transform="translate(6.000000, 6.000000)" fill="#2D2D2D">
                <path d="M391.77573,0 L195.969701,0 L195.969701,0 C87.8306979,0 0.163673247,87.7484426 0.163673247,195.987877 C0.163673247,304.227311 87.8306979,391.975754 195.969701,391.975754 C304.108705,391.975754 391.77573,304.227311 391.77573,195.987877 L391.77573,195.832935 L391.77573,195.832935 L391.77573,0 L391.77573,0 Z M327.031645,64.8042133 L327.031645,195.832935 L327.031645,196.388142 C326.812349,268.539157 268.10537,327.17154 195.969701,327.17154 C123.705035,327.17154 64.9077575,268.319657 64.9077575,195.987877 C64.9077575,123.656097 123.705035,64.8042133 195.969701,64.8042133 L327.031645,64.8042133 L327.031645,64.8042133 Z"></path>
            </g>
        </g>
    </g>
</svg>